<?xml version="1.0" encoding="UTF-8"?>
<svg id="Capa_1" data-name="Capa 1" xmlns="http://www.w3.org/2000/svg" xmlns:xlink="http://www.w3.org/1999/xlink" viewBox="0 0 89.57 89.69">
  <defs>
    <style>
      .cls-1 {
        fill: url(#Degradado_sin_nombre_72);
      }

      .cls-2 {
        fill: url(#Degradado_sin_nombre_33);
      }
    </style>
    <linearGradient id="Degradado_sin_nombre_72" data-name="Degradado sin nombre 72" x1="48.69" y1="1.48" x2="31.55" y2="48.59" gradientUnits="userSpaceOnUse">
      <stop offset="0" stop-color="#7db837" stop-opacity=".5"/>
      <stop offset=".1" stop-color="#7db837" stop-opacity=".57"/>
      <stop offset=".5" stop-color="#7db837" stop-opacity=".8"/>
      <stop offset=".82" stop-color="#7db837" stop-opacity=".95"/>
      <stop offset="1" stop-color="#7db837"/>
    </linearGradient>
    <radialGradient id="Degradado_sin_nombre_33" data-name="Degradado sin nombre 33" cx="48.5" cy="69.55" fx="48.5" fy="69.55" r="21.57" gradientUnits="userSpaceOnUse">
      <stop offset="0" stop-color="#a8512b"/>
      <stop offset=".77" stop-color="#512319"/>
    </radialGradient>
  </defs>
  <path class="cls-1" d="M60.53,19.42c-2.36-.98-13.62.63-13.37-1.91,1.02-2.42,3.11-3.53,4.35-6.47.92-2.05,1.34-4.68.29-6.73C49.98,1.28,45.65.2,42.27,0c-4.27-.09-6.15,2.74-7.77,6.94-.47,1.04-1,2.64-2.01,2.87-.87.22-2.03-1.01-3.35-2.1-1.61-1.28-3.35-2.41-5.08-2.44-4.21.16-6.36,6.38-5.83,9.7,1.38,6.97,9.05,11.22,14,15.26,7.59,6.27,15.67,11.84,17.55,22.13.28,1.17.53,3.29,1.53,3.41.82.07,1.83-2.15,1.72-4,.42-5.76-10.84-15.61-8.72-19.18.51-.61,1.56-.77,2.42-.83,3.33-.12,6.72.11,10.12-.18,8.36-.34,15.25-8.88,3.87-12.11l-.2-.04Z"/>
  <path class="cls-2" d="M61.78,49.44c-2.82.78-3.27,5.4-5.81,7.5-1.86,1.67-4.67,1.44-6.73.22-3.31-1.72-4.97-6-8.52-7.05-6.34-1.27-14.52,10.48-15.11,16.18-1.28,32.83,45.52,29.88,45.8-1.21.07-5.32-3.73-15.85-9.52-15.68l-.12.03Z"/>
</svg>